<svg xmlns="http://www.w3.org/2000/svg" baseProfile="tiny-ps" version="1.2" viewBox="0 0 1024 1024" xml:space="preserve">
  <title>bimi-svg-tiny-12-ps</title>
  <path d="m394.41 550.41c8.7196-9.1982 18.09-17.291 25.9-26.87 9.1733-11.252 8.9611-19.451-0.7981-30.071-7.6653-8.3417-15.517-16.512-23.226-24.814-2.8942-3.1169-5.9999-6.0993-8.0784-9.9459 1.826-1.6228 3.7301-1.012 5.459-1.0187 14.664-0.057068 29.329-0.014679 43.994-0.055725 13.301-0.037262 22.983-9.6684 22.988-22.799 0.006104-16.498-0.016266-32.995 0.037293-49.493 0.006164-1.9083-0.53531-3.9513 0.90823-6.0663 2.3875 1.016 3.9307 2.9638 5.6381 4.6846 11.614 11.705 22.428 24.203 34.849 35.104 8.3134 7.296 14.225 7.1305 22.156-0.58261 12.063-11.733 24.103-23.49 36.19-35.199 1.1281-1.0929 2.0818-2.624 3.9908-2.6843 1.5065 1.8778 0.9483 3.9548 0.88648 5.8415-0.54047 16.484 0.93304 32.953 0.16162 49.451-0.44916 9.6048 11.921 21.624 21.765 21.715 14.497 0.1341 28.996 0.083496 43.493 0.17581 2.2709 0.014465 4.6635-0.42789 6.839 0.99158 0.32013 2.2668-1.586 3.1649-2.7581 4.3643-9.5486 9.7705-19.335 19.314-28.72 29.238-9.8444 10.409-9.5851 22.422 0.48059 32.797 8.5845 8.8479 17.396 17.475 26.072 26.235 2.3061 2.3286 4.704 4.6287 5.9008 7.837-1.6995 1.7014-3.6276 1.0438-5.3438 1.0522-14.331 0.070556-28.663 0.12689-42.994 0.042846-6.8425-0.0401-12.664 2.5208-17.946 6.5253-3.9196 2.9714-6.0339 6.8823-6.024 12.003 0.028077 14.497-0.062683 28.994-0.24597 43.49-0.053772 4.2555-0.57275 8.5051-0.87262 12.675-2.1259 0.3053-2.7873-1.0479-3.7159-1.9121-11.342-10.555-22.598-21.204-34.045-31.643-4.3116-3.9318-8.9543-7.3026-15.407-7.251-5.523 0.044067-10.003 1.7042-13.852 5.6564-10.346 10.623-20.784 21.155-31.228 31.682-1.2262 1.236-2.1778 2.9987-4.3623 3.0399-1.3007-1.4161-0.87085-3.1577-0.83673-4.7253 0.35532-16.332-0.41345-32.637-0.98941-48.949-0.35855-10.155-10.584-20.44-20.791-20.551-14.997-0.16333-29.995-0.14392-44.992-0.28924-2.2371-0.021668-4.6582 0.57019-6.8741-1.1639 1.0512-3.5436 4.2074-5.4696 6.3918-8.5148m157.23-32.257c0.3349-1.7907 0.86523-3.5695 0.97498-5.374 1.3775-22.645-11.967-39.56-34.346-43.621-23.183-4.2062-45.834 14.269-45.914 37.636-0.11087 32.253 25.981 47.098 53.577 40.246 14.569-3.6175 21.635-14.543 25.709-28.887z" fill="#ffffff"/>
  <path d="m745.04 617.32c-13.794-1.6703-27.131-3.3661-40.484-4.925-2.6276-0.30676-4.8318-1.2103-6.6395-3.0572-15.033-15.358-30.051-30.73-45.059-46.113-0.67096-0.68768-1.5381-1.3647-0.92383-3.2711 6.6826 1.1865 13.592 0.42615 20.49 0.92383 13.091 0.94452 26.193 1.743 39.271 2.8361 17.703 1.4796 35.387 3.1893 53.081 4.7781 4.6333 0.41608 9.2931 0.59479 13.906 1.165 4.6935 0.58026 6.4941-0.99591 6.4566-5.9509-0.19287-25.492-0.12866-50.987-0.084228-76.48 0.01886-10.827 0.19299-21.655 0.32733-32.482 0.073731-5.9471-0.77905-6.4635-6.5979-5.893-10.587 1.0379-21.209 1.7199-31.82 2.5061-17.067 1.2646-34.119 2.8907-51.209 3.6175-15.028 0.6391-30.07 2.1515-45.23 1.2101 0.12213-0.69644 0.065918-1.1085 0.24396-1.287 15.65-15.688 31.335-31.342 46.969-47.047 2.4834-2.4948 5.7709-2.6722 8.7881-2.9919 33.506-3.5498 66.684-9.3931 100.04-14.004 9.8268-1.3585 19.633-3.2369 29.534-3.4864 1.8021 1.7704 1.1761 3.8888 1.177 5.7883 0.036683 76.648 0.035035 153.3 0.023682 229.94-9.77e-4 6.2454-0.04126 6.1875-5.8926 5.4042-27.802-3.7222-55.608-7.4128-83.415-11.099-0.8208-0.10883-1.6642-0.046814-2.9487-0.086914z" fill="#ffffff"/>
  <path d="m188.71 479c-3.97e-4 -30.623-3.97e-4 -60.747-3.97e-4 -91.456 7.9847-0.17023 15.228 1.6458 22.522 2.6071 20.557 2.7091 41.083 5.6507 61.616 8.5346 16.754 2.3531 33.503 4.7482 50.25 7.1456 1.8762 0.26856 3.42 1.2647 4.7778 2.5481 15.504 14.655 30.203 30.095 44.645 45.786 0.31336 0.34045 0.43808 0.85458 0.98795 1.9741-6.7444 0-13.18 0.58234-19.465-0.14395-8.2904-0.95801-16.624-1.0457-24.896-1.4034-24.428-1.0564-48.769-3.4248-73.196-4.3835-3.471-0.13626-6.8966-0.99408-10.426-0.84366-3.4859 0.14853-5.2001 1.7148-5.1497 5.262 0.056885 3.9978-0.013824 7.9973-0.013199 11.996 0.005082 32.157 0.002365 64.315 0.031098 96.472 0.005935 6.6315 0.087753 6.9448 6.7241 6.4861 14.578-1.0076 29.128-2.4048 43.696-3.5566 10.765-0.85101 21.535-1.657 32.313-2.3196 16.09-0.98932 32.189-1.8379 48.285-2.7338 0.97565-0.054321 2.0043-0.23309 2.945 0.66705 0.18069 2.4571-1.9142 3.6623-3.3206 5.105-14.069 14.434-28.271 28.739-42.312 43.2-4.4036 4.5352-10.193 3.6498-15.451 4.2771-24.059 2.8702-48.172 5.2726-72.181 8.5928-16.28 2.2514-32.614 4.1203-48.919 6.1945-2.4148 0.30725-3.3993-0.77582-3.4183-3.0507-0.01384-1.666-0.049271-3.332-0.049286-4.9979-5.04e-4 -47.153 0.002274-94.306 0.004166-141.96z" fill="#ffffff"/>
  <path d="m460.34 317.85c1.1593 16.398 0.79202 32.32 0.75241 48.135-2.7173 0.71518-3.5827-1.053-4.65-2.1468-13.033-13.357-25.907-26.871-39.058-40.109-5.1841-5.2183-3.8834-11.879-4.5056-17.897-1.8949-18.324-3.0312-36.724-5.0121-55.051-1.6586-15.347-2.794-30.749-4.2625-46.118-0.45734-4.7863-1.2558-9.5397-1.8787-14.311-0.46045-3.5271 0.31748-5.5381 4.6653-5.5318 72.322 0.10577 144.64 0.079361 216.97 0.095092 0.80969 1.83e-4 1.6194 0.16716 2.6553 0.28116 1.3723 5.0931-0.22443 9.9991-0.89941 14.77-3.7898 26.786-6.4199 53.707-9.6063 80.561-1.4664 12.359-2.1754 24.809-3.1155 37.227-0.15912 2.1018-0.63318 3.8241-2.1633 5.3569-13.89 13.914-27.731 27.876-41.61 41.801-0.76978 0.7724-1.3819 1.9689-3.2548 1.572-1.0925-3.8949-0.49634-8.0418-0.17474-12.048 1.2275-15.291 0.2326-30.616 1.262-45.939 1.4385-21.414 1.5911-42.917 2.1753-64.385 0.18195-6.6871 0.005981-6.7278-6.601-6.7302-32.328-0.011886-64.657-0.013824-96.985 0.007447-6.6847 0.004394-6.8312 0.060409-6.6707 6.6044 0.60019 24.46 1.305 48.917 1.9713 73.856z" fill="#ffffff"/>
  <path d="m460.29 689.92c-1.3703 25.919-2.6019 51.354-3.1209 76.82-0.060883 2.987-0.49594 5.9697-0.82123 8.9473-0.39603 3.6252 1.0511 5.0859 4.8092 5.025 10.33-0.16772 20.665-0.052673 30.999-0.052307 24 8.55e-4 48-0.10522 71.998 0.094116 4.4838 0.037293 5.7993-1.4039 5.5601-5.7422-1.0715-19.435-1.9672-38.88-2.8313-58.325-0.92426-20.798-1.645-41.602-1.1912-62.427 0.016846-0.77386 0.31098-1.5416 0.44641-2.1747 1.8865-0.66229 2.7498 0.47168 3.6746 1.4009 12.577 12.637 24.884 25.56 37.844 37.791 5.4399 5.134 4.7717 11.419 5.579 17.442 2.2035 16.44 3.9893 32.937 5.8549 49.421 1.8102 15.995 3.4819 32.005 5.2804 48.001 0.74127 6.593 1.5329 13.185 2.5275 19.743 0.82312 5.4276 0.40686 6.2222-5.103 6.2641-14.666 0.11151-29.332 0.14526-43.999 0.15124-56.666 0.023193-113.33 0.029968-170 0.008117-2.2814-8.54e-4 -4.6505 0.47815-7.2735-0.82385-0.017212-8.339 1.7026-16.635 2.527-24.991 1.319-13.37 3.097-26.695 4.5832-40.05 1.67-15.007 3.2697-30.023 4.8242-45.043 0.80313-7.7602 1.4753-15.535 2.1301-23.309 0.15094-1.7924 0.93954-3.1447 2.141-4.3652 13.561-13.776 27.115-27.558 40.692-41.319 0.44544-0.45148 1.1094-0.68732 2.8754-1.744 0 13.445 0 26.107-0.008545 39.257z" fill="#ffffff"/>
</svg>